<?xml version="1.0" standalone="no"?>
<!DOCTYPE svg PUBLIC "-//W3C//DTD SVG 1.1//EN" "http://www.w3.org/Graphics/SVG/1.1/DTD/svg11.dtd" >
<svg xmlns="http://www.w3.org/2000/svg">
<metadata>
Created by FontForge 20120731 at Mon Sep  5 17:44:16 2016
 By admin
</metadata>
<defs>
<font id="iconfont" horiz-adv-x="1024" >
  <font-face 
    font-family="iconfont"
    font-weight="500"
    font-stretch="normal"
    units-per-em="1024"
    panose-1="2 0 6 3 0 0 0 0 0 0"
    ascent="896"
    descent="-128"
    x-height="792"
    bbox="-0.0416667 -224 1029.04 896.711"
    underline-thickness="50"
    underline-position="-100"
    unicode-range="U+0078-E626"
  />
<missing-glyph horiz-adv-x="374" 
d="M34 0v682h272v-682h-272zM68 34h204v614h-204v-614z" />
    <glyph glyph-name=".notdef" horiz-adv-x="374" 
d="M34 0v682h272v-682h-272zM68 34h204v614h-204v-614z" />
    <glyph glyph-name=".null" horiz-adv-x="0" 
 />
    <glyph glyph-name="nonmarkingreturn" horiz-adv-x="341" 
 />
    <glyph glyph-name="x" unicode="x" horiz-adv-x="1001" 
d="M281 543q-27 -1 -53 -1h-83q-18 0 -36.5 -6t-32.5 -18.5t-23 -32t-9 -45.5v-76h912v41q0 16 -0.5 30t-0.5 18q0 13 -5 29t-17 29.5t-31.5 22.5t-49.5 9h-133v-97h-438v97zM955 310v-52q0 -23 0.5 -52t0.5 -58t-10.5 -47.5t-26 -30t-33 -16t-31.5 -4.5q-14 -1 -29.5 -0.5
t-29.5 0.5h-32l-45 128h-439l-44 -128h-29h-34q-20 0 -45 1q-25 0 -41 9.5t-25.5 23t-13.5 29.5t-4 30v167h911zM163 247q-12 0 -21 -8.5t-9 -21.5t9 -21.5t21 -8.5q13 0 22 8.5t9 21.5t-9 21.5t-22 8.5zM316 123q-8 -26 -14 -48q-5 -19 -10.5 -37t-7.5 -25t-3 -15t1 -14.5
t9.5 -10.5t21.5 -4h37h67h81h80h64h36q23 0 34 12t2 38q-5 13 -9.5 30.5t-9.5 34.5q-5 19 -11 39h-368zM336 498v228q0 11 2.5 23t10 21.5t20.5 15.5t34 6h188q31 0 51.5 -14.5t20.5 -52.5v-227h-327z" />
    <glyph glyph-name="uniE600" unicode="&#xe600;" 
d="M644 617l-359 -359l359 -359h95v1l-358 358l358 359h-95z" />
    <glyph glyph-name="uniE601" unicode="&#xe601;" 
d="M383 736l446 -446l-446 -450l-62 62l385 388l-385 384z" />
    <glyph glyph-name="uniE602" unicode="&#xe602;" 
d="M948 -164q0 -16 -11.5 -27.5t-28 -11.5t-28 11.5t-11.5 27.5v4v4q-18 130 -118 215.5t-235 86.5h-2h-2h-2h-2q-134 -1 -233 -84.5t-119 -211.5q1 -5 1 -10v-4q0 -16 -11.5 -28t-28 -12t-28 12t-11.5 28l-1 1v1v2q0 4 1 9q16 119 89.5 210.5t183.5 133.5q-64 41 -102 110
t-38 149q0 128 87.5 217.5t213.5 89.5t213.5 -89.5t87.5 -217.5q0 -80 -38 -149t-102 -110q109 -42 182.5 -132.5t89.5 -207.5q3 -7 3 -13v-4zM743 452q0 96 -67.5 164t-163.5 68t-164 -68t-68 -164t68 -163.5t164 -67.5t163.5 67.5t67.5 163.5z" />
    <glyph glyph-name="uniE603" unicode="&#xe603;" 
d="M811.5 286q-14.5 0 -25 -10t-10.5 -25v-312q-2 -35 -14 -46.5t-47 -13.5h-400q-40 1 -53.5 13t-15.5 53v306q0 15 -10 25t-25 10t-25 -10t-10 -25v-372q0 -34 22.5 -51.5t58.5 -17.5h42v-1l464 1q36 0 59.5 18t23.5 51v45h1v327q0 15 -10.5 25t-25 10zM1004 292l-461 459
q-2 4 -5 7q-12 12 -29 9q-13 0 -23 -10v-1h-1l-3 -3l-463 -462q-24 -24 -2 -46q25 -26 49 -2l445 438l448 -437q24 -24 49 2q21 20 -4 46zM741 657h106v-106q0 -14 10 -24.5t24.5 -10.5t25 10.5t10.5 24.5v142q0 14 -10.5 24.5t-24.5 10.5h-141q-15 0 -25.5 -10.5t-10.5 -25
t10.5 -25t25.5 -10.5z" />
    <glyph glyph-name="uniE604" unicode="&#xe604;" horiz-adv-x="1026" 
d="M509 481q-74 0 -126 -52t-52 -126t52 -126t126 -52t126.5 52t52.5 126t-52.5 126t-126.5 52zM509 175q-53 0 -90.5 37.5t-37.5 90.5t37.5 91t90.5 38t91 -38t38 -91t-38 -90.5t-91 -37.5zM899 434h-22l-2 7q-1 1 -1 2q-5 12 -9 21l-3 6l15 16q35 35 35 84.5t-35 84.5
l-16 16q-35 35 -84.5 35t-84.5 -35l-15 -15l-7 3q-10 5 -23 9l-7 3v22q0 49 -35 84t-84 35h-24q-49 0 -84 -35t-35 -84v-22l-7 -3q-13 -4 -23 -9l-6 -3l-16 15q-35 35 -84.5 35t-84.5 -35l-16 -16q-35 -35 -35 -84.5t35 -84.5l15 -16l-3 -6q-4 -9 -9 -21v-2h-1l-2 -7h-22
q-49 0 -84 -35t-35 -84v-24q0 -49 35 -84t84 -35h22l2 -7h1v-2q5 -12 9 -21l3 -6l-15 -16q-35 -35 -35 -84t35 -84l16 -17q35 -35 84.5 -35t84.5 35l16 15l6 -3q10 -4 23 -9l7 -3v-21q0 -50 35 -85t84 -35h24q49 0 84 35t35 85v21l7 3q13 5 23 9l7 3l15 -15q35 -35 84.5 -35
t84.5 35l16 17q35 35 35 84t-35 84l-15 16l3 6q4 9 9 21q0 1 1 2l2 7h22q49 0 84 35t35 84v24q0 49 -35 84t-84 35zM968 291q0 -7 -1 -13q-1 -2 -1 -5q-1 0 -1 -1v-1q-1 -4 -2 -6l-3 -6l-1 -1v-1q-1 -2 -2 -3q-2 -4 -6 -8v0l-2 -2q-3 -4 -8 -7q0 -1 -1 -1q-15 -12 -35 -14
h-2h-4h-59q-12 -49 -40 -95l42 -42q16 -16 19 -39q0 -1 1 -1v-12v-2q-1 -6 -1 -10q-1 -1 -1 -3q-1 -1 -1 -2v-1q-1 -4 -2 -6l-3 -6l-1 -1v-1l-2 -4q-4 -5 -9 -10l-17 -17q-4 -5 -10 -8v-1q-2 0 -4 -2h-1l-1 -1l-6 -3q-2 -1 -6 -2h-1h-2q-2 -1 -3 -1q-4 -1 -10 -2v0h-2h-3
q-4 0 -8 1h-1q-24 3 -40 19l-42 42q-46 -28 -95 -40v-58v-5v-2q-2 -19 -14 -35v-1q-4 -5 -8 -8l-2 -2q-4 -4 -8 -6q-1 -1 -3 -2h-1l-1 -1l-6 -3q-2 -1 -6 -2h-1h-1q-3 -1 -5 -2q-6 -1 -13 -1h-24q-7 0 -13 1l-4 2h-2h-1q-4 1 -6 2l-6 3l-1 1h-1q-2 1 -3 2q-3 2 -8 6l-2 2
q-4 3 -7 8h-1v1q-12 16 -14 35v2v5v58q-49 12 -95 40l-42 -42q-16 -16 -39 -19h-1q-5 -1 -9 -1h-3h-2v0q-6 1 -10 2q-1 0 -3 1h-2h-1q-4 1 -6 2l-6 3l-1 1h-1q-2 2 -4 3q-5 3 -10 8l-17 17q-5 5 -9 10q0 2 -2 4v1l-1 1l-3 6q-1 2 -2 6v2l-1 1q0 2 -1 3q0 4 -1 10v2q0 5 1 11
v2q3 23 19 39l42 42q-28 46 -40 95h-59h-4h-2q-20 2 -35 14q-1 0 -1 1q-5 3 -8 7l-2 2v0q-4 4 -6 8q-1 1 -2 3v1l-1 1l-3 6q-1 2 -2 6v1v1q-1 3 -2 5q-1 6 -1 13v24q0 7 1 13q1 2 2 5v1v1q1 4 2 6l3 6l1 1v1q1 2 2 3q2 3 6 8v0l2 2q3 4 8 8h1q15 12 35 14h2h4h59
q12 49 40 95l-42 42q-16 16 -19 39v2q-1 6 -1 11v2q1 6 1 10q1 1 1 4q1 0 1 1v1q1 4 2 6l3 6l1 1v1q2 2 2 4q4 5 9 10l17 17q4 5 10 9q2 0 4 2h1l1 1l6 3q2 1 6 2h1q1 0 2 1q2 0 3 1q4 0 10 1h2h2h9q1 -1 2 -1q23 -3 39 -19l42 -42q46 28 95 40v59v4v2q2 20 14 35v1h1
q3 5 7 8l2 2q5 4 8 6q1 1 3 2h1l1 1l6 3q2 1 6 2h1q1 0 1 1q3 0 5 1q6 1 13 1h24q7 0 13 -1q2 -1 5 -2h1h1q4 -1 6 -2l6 -3l1 -1h1q2 -1 3 -2q4 -2 8 -6l2 -2q4 -3 8 -8v-1q12 -15 14 -35v-2v-4v-59q49 -12 95 -40l42 42q16 16 39 19q1 0 2 1h9h2h2h1q5 -1 9 -1q1 -1 4 -1
q0 -1 1 -1h1q4 -1 6 -2l6 -3l1 -1h1l4 -2q6 -4 10 -9l17 -17q5 -4 9 -10l2 -4v-1l1 -1l3 -6q1 -2 2 -6v-1q0 -1 1 -2q0 -2 1 -3q0 -4 1 -10v-2v-11q0 -1 -1 -2q-3 -23 -19 -39l-42 -42q28 -46 40 -95h59h4h2q20 -2 35 -14h1q5 -4 8 -8l2 -2v0q4 -5 6 -8q1 -1 2 -3v-1l1 -1
l3 -6q1 -2 2 -6v-1l1 -1q0 -3 1 -5q1 -6 1 -13v-24z" />
    <glyph glyph-name="uniE605" unicode="&#xe605;" 
d="M544 672h-64v-352h-352v-64h352v-352h64v352h352v64h-352v352z" />
    <glyph glyph-name="uniE606" unicode="&#xe606;" 
d="M128 320h768v-64h-768v64z" />
    <glyph glyph-name="uniE607" unicode="&#xe607;" 
d="M847 623h-670q-47 0 -79.5 -32.5t-32.5 -78.5v-448q0 -46 32.5 -78.5t79.5 -32.5h670q47 0 79.5 32.5t32.5 78.5v448q0 46 -32.5 78.5t-79.5 32.5zM847 568q15 0 27 -7l-362 -324l-362 324q12 7 27 7h670zM903 64q0 -23 -16 -39.5t-40 -16.5h-670q-24 0 -40 16.5
t-16 39.5v448l391 -349l391 349v-448z" />
    <glyph glyph-name="uniE608" unicode="&#xe608;" 
d="M103 648q-13 -15 -22 -41t-8.5 -77t19 -109.5t72.5 -142t140 -171.5q66 -68 130 -117.5t115.5 -76.5t99.5 -42t83 -17t64 2.5t45.5 12.5t25.5 17l-214 214q-11 -11 -24 -12.5t-31.5 7.5t-37 22.5t-50.5 39.5q-87 71 -154 154q-15 18 -24.5 32t-16.5 30.5t-5.5 30.5
t13.5 25zM945 -38q10 11 9.5 24.5t-10.5 23.5l-167 167q-10 10 -24 10t-23 -10l-61 -61l215 -214l4 4l11 11l15 15l14 14l12 12l4 4h1zM400 506q10 11 9.5 24.5t-9.5 23.5l-172 172q-10 10 -24 9.5t-24 -9.5l-61 -61l220 -219l61 60v0z" />
    <glyph glyph-name="uniE609" unicode="&#xe609;" 
d="M512 734q-91 0 -174 -35.5t-142.5 -95t-95 -142.5t-35.5 -174t35.5 -174t95 -143t142.5 -95.5t174 -35.5t174 35.5t143 95.5t95.5 143t35.5 174t-35.5 174t-95.5 142.5t-143 95t-174 35.5zM512.5 -113q-108.5 0 -200.5 53.5t-145.5 145.5t-53.5 200.5t53.5 200.5
t145.5 145.5t200.5 53.5t200.5 -53.5t145.5 -145.5t53.5 -200.5t-53.5 -200.5t-145.5 -145.5t-200.5 -53.5zM672 354h-43l57 96q4 5 1 11.5t-10 10.5l-17 10q-7 4 -14 3t-10 -7l-74 -125h-105l-74 125q-3 6 -10 7t-14 -3l-17 -10q-7 -4 -9.5 -10.5t0.5 -11.5l57 -96h-42
q-8 0 -13.5 -6t-5.5 -14v-19q0 -7 5.5 -13t13.5 -6h133v-95h-133q-8 0 -13.5 -5.5t-5.5 -13.5v-19q0 -8 5.5 -13.5t13.5 -5.5h133v-95q0 -8 5.5 -13.5t13.5 -5.5h19q8 0 13.5 5.5t5.5 13.5v95h134q7 0 13 5.5t6 13.5v19q0 8 -6 13.5t-13 5.5h-134v95h134q7 0 13 6t6 13v19
q0 8 -6 14t-13 6z" />
    <glyph glyph-name="uniE60A" unicode="&#xe60a;" 
d="M861.5 -93q-13.5 0 -22.5 9l-699 699q-9 9 -9 22.5t9 22.5t22.5 9t22.5 -9l699 -699q9 -9 9 -22.5t-9 -22.5t-22.5 -9zM162.5 -93q-13.5 0 -22.5 9t-9 22.5t9 22.5l699 699q9 9 22.5 9t22.5 -9t9 -22.5t-9 -22.5l-699 -699q-9 -9 -22.5 -9z" />
    <glyph glyph-name="uniE60B" unicode="&#xe60b;" 
d="M478 156q19 -20 45 -20t44 21l270 309q6 7 5.5 15.5t-7 14.5t-15.5 5.5t-15 -7.5l-270 -309q-13 -14 -25 -1l-281 310q-6 7 -14.5 7.5t-15.5 -5.5t-7 -15t6 -15z" />
    <glyph glyph-name="uniE60C" unicode="&#xe60c;" 
d="M367 -42l-302 302l67 67l235 -234l525 525l67 -67z" />
    <glyph glyph-name="uniE60D" unicode="&#xe60d;" 
d="M510 -155q-91 0 -173.5 35t-142 94.5t-94.5 142t-35 173.5t35 173.5t94.5 142t142 94.5t173.5 35t173.5 -35t142 -94.5t94.5 -142t35 -173.5t-35 -173.5t-94.5 -142t-142 -94.5t-173.5 -35zM510 652q-98 0 -181.5 -48.5t-132 -132t-48.5 -181.5q0 -139 94 -243
q26 13 46.5 16t55.5 17q31 13 52.5 22.5t27.5 13.5l7 3v66q-3 3 -7.5 8t-14 26t-12.5 49q-11 -3 -16.5 8t-6.5 26q0 2 -1 11.5t-1.5 16.5t0 14.5t4 11.5t8.5 3q-7 55 -5 73q4 41 40.5 73.5t90.5 35.5q63 -3 95 -34.5t37 -74.5q1 -17 -6 -73q5 1 8.5 -2.5t4 -11.5t0 -14.5
t-1.5 -16.5t-1 -12q-1 -15 -6.5 -26t-16.5 -8q-3 -28 -12 -48.5t-15 -27.5l-7 -6v-67q17 -9 87 -38q35 -14 55.5 -17.5t46.5 -16.5q94 104 94 243q0 98 -48.5 181.5t-132 132t-181.5 48.5z" />
    <glyph glyph-name="uniE60E" unicode="&#xe60e;" 
d="M448 433l168 -145l199 261l54 -54v154h-154l56 -55l-164 -216l-166 143l-273 -324l47 -40zM870 -25v468h-97v-468h-98v234h-97l1 -234h-80v331h-97v-331h-98v136h-97l1 -136h-99v663h-58v-722h917v59h-98z" />
    <glyph glyph-name="uniE60F" unicode="&#xe60f;" 
d="M512 -224q-102 0 -195 40.5t-160.5 109t-107.5 163.5t-40 199t40 199t107.5 163.5t160.5 109t195 40.5t195.5 -40.5t161 -109t107.5 -163.5t40 -199t-40 -199t-107.5 -163.5t-161 -109t-195.5 -40.5zM512.5 746q-91.5 0 -175 -36.5t-144 -97.5t-96 -146t-35.5 -178
t35.5 -178t96 -146t144 -97.5t175 -36.5t174.5 36.5t143.5 97.5t96 146t35.5 178t-35.5 178t-96 146t-143.5 97.5t-174.5 36.5zM729 11h-431q-18 0 -30.5 12t-12.5 29v325q0 17 12.5 29t30.5 12h43q0 67 50.5 115t122 48t122 -48t50.5 -115h43q18 0 30.5 -12t12.5 -29v-325
q0 -17 -12.5 -29t-30.5 -12zM470 185v-92h86v92q43 24 43 70q0 34 -25 58t-60.5 24t-61 -24t-25.5 -58q0 -46 43 -70zM513.5 540q-53.5 0 -91.5 -36t-38 -86h259q0 50 -38 86t-91.5 36z" />
    <glyph glyph-name="uniE610" unicode="&#xe610;" 
d="M38 295q0 23 16 40l418 417q16 17 40 17t40 -17l418 -417q16 -17 16 -40.5t-16.5 -40t-40 -16.5t-40.5 16l-377 378l-377 -378q-17 -16 -40.5 -16t-40 16.5t-16.5 40.5v0zM38 -136q0 24 16 40l418 418q16 16 40 16t40 -16l418 -418q16 -17 16 -40.5t-16.5 -40t-40 -16.5
t-40.5 17l-377 377l-377 -377q-17 -17 -40.5 -17t-40 16.5t-16.5 40.5v0zM38 -136z" />
    <glyph glyph-name="uniE611" unicode="&#xe611;" 
d="M610 736q52 24 94.5 -5.5t33.5 -85.5q-1 -7 -4 -16t-6 -15t-7.5 -16.5t-6.5 -14.5q-14 -31 -30 -57q108 -77 181 -180q45 -64 69 -130t10 -143q-12 -68 -52 -121.5t-97 -88.5q-119 -71 -292 -67q-164 3 -282 78q-124 80 -141 219q-9 76 16.5 139.5t72.5 125.5
q80 105 188 173q-3 4 -12 21.5t-13.5 28t-11.5 26.5t-11 30q-7 27 1 53t27 41t44 19.5t52 -11.5q39 36 74 39q61 6 103 -42zM513 721q-12 -1 -21 -6t-15 -14.5t-9.5 -17t-8.5 -21.5t-8 -20q-6 4 -16.5 19.5t-23 25.5t-28.5 7q-8 -2 -14 -11.5t-6 -19.5q0 -5 2 -11.5
t6.5 -16.5t5.5 -13q32 -77 62 -108q-116 -66 -187 -146q-32 -36 -52 -62.5t-40 -69.5t-24 -87q-8 -71 24.5 -128t85.5 -94q98 -69 259 -74q160 -6 269 65q52 33 86.5 89.5t29.5 126.5q-5 66 -33 119t-74 108q-61 72 -157 135q-3 1 -10 5t-11.5 7t-4.5 5l2 3q3 2 6.5 6t5.5 6
q29 36 54 92q1 2 4 8.5t4 9t3.5 9.5t2 9.5t-0.5 9.5q-1 8 -6.5 14.5t-10.5 8.5q-16 5 -30.5 -4.5t-26.5 -25.5t-18 -18q-6 20 -10 30.5t-13 25.5t-22 20.5t-31 3.5zM642 350l-83 -142h59v-43h-73v-33h73v-43h-73v-59h-65v59h-75v43h75v33h-75v43h60l-81 142h71
q47 -99 60 -130h1q2 5 4 11q4 11 30 64l26 55h66z" />
    <glyph glyph-name="uniE612" unicode="&#xe612;" 
d="M512 508q-58 0 -96 -37q-47 -48 -47 -147q0 -84 40 -134t106 -50q32 0 55 13q-10 9 -24.5 23.5t-23.5 21.5l51 47q6 -6 21 -21.5t27 -29.5q38 47 38 133q0 96 -48 144q-48 37 -99 37zM512 812q-212 0 -362 -150t-150 -362t150 -362t362 -150t362 150t150 362t-150 362
t-362 150zM693 123q14 -14 41 -35l-51 -51q-14 17 -58 62q-46 -28 -113 -28q-99 0 -160 62q-69 73 -69 191q0 115 64 185.5t168.5 70.5t166.5 -68.5t62 -184.5q0 -61 -20 -112q-15 -39 -48 -72z" />
    <glyph glyph-name="uniE613" unicode="&#xe613;" 
d="M502 498q-10 -27 -10 -34l-65 -181h153l-65 181q-6 13 -13 34zM512 812q-212 0 -362 -150t-150 -362t150 -362t362 -150t362 150t150 362t-150 362t-362 150zM645 78q-6 38 -17 65l-24 68h-198l-24 -68q-14 -43 -17 -65h-102q6 10 17.5 35.5t16.5 36.5l136 355q4 11 9 25
t7.5 22t4.5 14h106q4 -16 20 -61l137 -355q25 -62 31 -72h-103z" />
    <glyph glyph-name="uniE614" unicode="&#xe614;" 
d="M957 633q-2 1 -8 6q-9 6 -20.5 3.5t-18.5 -11.5q-136 -183 -207 -279q-2 -2 -3 -4q8 0 15 -4l45 -32q7 -5 9 -12q2 2 3 4q36 55 103.5 157t87.5 132q7 10 5 22t-11 18zM754 304l-45 32q-6 4 -13 0l-79 -49q-8 -5 -6 -14q7 -20 1.5 -57.5t-12.5 -64.5q-3 -9 4 -13.5
t14 0.5q23 16 56.5 34t54.5 19q9 0 11 9l19 92q2 7 -5 12zM719 214q-28 -5 -71 -29q0 -1 -1 -1.5t-2 -0.5l37 53q8 -1 13 6q8 12 -4 20.5t-20 -3.5q-5 -7 -1 -15l-37 -52v3q8 49 4 76l65 40l32 -22zM707 142q-10 0 -17 -7t-7 -17v-37h-510v607h510v-254q0 -10 7 -17t17 -7
t16.5 7t6.5 17v278q0 10 -6.5 17t-16.5 7h-558q-10 0 -17 -7t-7 -17v-655q0 -9 7 -16t17 -7h558q10 0 16.5 7t6.5 16v61q0 10 -6.5 17t-16.5 7zM257 619h342v-39h-342v39zM257 504h342v-39h-342v39zM257 389h342v-39h-342v39zM257 197h292v-39h-292v39z" />
    <glyph glyph-name="uniE615" unicode="&#xe615;" 
d="M218 156v-24q0 -14 10.5 -24.5t24.5 -10.5h113q14 0 24.5 10.5t10.5 24.5v24q0 22 -19 31v176q19 10 19 31v24q0 15 -10.5 25t-24.5 10h-113q-14 0 -24.5 -10t-10.5 -25v-24q0 -21 19 -31v-176q-19 -9 -19 -31zM261 148q8 1 13.5 7.5t5.5 14.5v211q0 8 -5.5 14t-13.5 7v8
h97v-8q-8 -1 -13.5 -7t-5.5 -14v-211q0 -8 5.5 -14.5t13.5 -7.5v-8h-97v8zM424 156v-24q0 -14 10.5 -24.5t24.5 -10.5h113q15 0 25 10.5t10 24.5v24q0 22 -19 31v176q19 10 19 31v24q0 15 -10 25t-25 10h-113q-14 0 -24.5 -10t-10.5 -25v-24q0 -21 19 -31v-176
q-19 -9 -19 -31zM467 148q8 1 13.5 7.5t5.5 14.5v211q0 8 -5.5 14t-13.5 7v8h97v-8q-8 -1 -13.5 -7t-5.5 -14v-211q0 -8 5.5 -14.5t13.5 -7.5v-8h-97v8zM631 156v-24q0 -14 10 -24.5t24 -10.5h114q14 0 24 10.5t10 24.5v24q0 22 -19 31v176q19 10 19 31v24q0 15 -10 25
t-24 10h-114q-14 0 -24 -10t-10 -25v-24q0 -21 19 -31v-176q-19 -9 -19 -31zM673 148q8 1 13.5 7.5t5.5 14.5v211q0 8 -5.5 14t-13.5 7v8h98v-8q-8 -1 -13.5 -7t-5.5 -14v-211q0 -8 5.5 -14.5t13.5 -7.5v-8h-98v8zM827 81h-622q-5 0 -8.5 -4t-3.5 -9v-51q0 -5 3.5 -8.5
t8.5 -3.5h622q5 0 8.5 3.5t3.5 8.5v51q0 5 -3.5 9t-8.5 4zM859 501l-333 248q-10 7 -20 0l-333 -248q-9 -6 -5 -15t15 -9h665q11 0 15 9t-4 15z" />
    <glyph glyph-name="uniE616" unicode="&#xe616;" 
d="M888 312q-13 95 -45 183q-34 97 -86 163q-59 75 -137 106q-9 43 -39.5 70.5t-70.5 27.5t-70.5 -27.5t-39.5 -70.5q-78 -31 -137 -106q-52 -66 -86 -163q-32 -88 -45 -184q-43 -12 -70.5 -48t-27.5 -83q0 -56 39 -96t93 -40h690q54 0 93 40t39 96q0 47 -28 84t-72 48z
M240 474q70 193 200 233l23 7l1 24q1 24 14.5 40.5t31.5 16.5t31.5 -16.5t14.5 -40.5l1 -24l23 -7q130 -40 200 -233q27 -74 40 -158h-620q13 84 40 158zM856 111h-690q-27 0 -46 20t-19 49t19 49t46 20h690q27 0 46 -20t19 -49t-19 -49t-46 -20zM444 -25h136v-68h-136v68z
" />
    <glyph glyph-name="uniE617" unicode="&#xe617;" 
d="M895 571h-779q-22 0 -38 -16t-16 -39v-124q0 -22 16 -38t38 -16h10v-313q0 -23 16 -39t39 -16h649q22 0 38 16t16 39v313h11q22 0 38 16t16 38v124q0 23 -16 39t-38 16zM105 392v124q0 5 3.5 8t7.5 3h321v-145h-321q-4 0 -7.5 3t-3.5 7zM170 25v313h267v-324h-256
q-5 0 -8 3t-3 8zM841 25q0 -5 -3.5 -8t-7.5 -3h-257v324h268v-313zM906 392q0 -4 -3.5 -7t-7.5 -3h-322v145h322q4 0 7.5 -3t3.5 -8v-123v-1zM487 592l17 1v0h1q7 -1 18 -1q90 0 157 13q127 22 127 88q0 34 -24.5 54.5t-65.5 20.5q-47 0 -104.5 -29.5t-107.5 -89.5
q-49 60 -106 89.5t-103 29.5q-40 0 -64.5 -20.5t-24.5 -54.5q0 -20 12 -36t40.5 -31.5t86.5 -24.5t141 -9zM717 725q46 0 46 -32q0 -14 -24 -26t-66 -19q-51 -10 -121 -11q40 43 84.5 65.5t80.5 22.5zM296 725q35 0 79 -22.5t83 -66.5q-92 3 -149.5 18.5t-57.5 38.5
q0 32 45 32z" />
    <glyph glyph-name="uniE618" unicode="&#xe618;" 
d="M745 891h-347q-21 0 -36 -15t-15 -36v-124q0 -21 15 -36t36 -15h9v-356q0 -11 -8 -17q0 -1 -1 -1l-120 -120q-7 -7 -15 -18q-2 -2 -3 -5q-22 -31 -28 -69.5t6 -74.5q1 -3 2 -5q13 -35 38 -60q48 -49 116 -49q59 0 104 37q7 6 13 12l177 177q21 21 33 52.5t13.5 48.5
t1.5 31v37v1v12v1v366h8q22 0 37 15t15 36v124q0 21 -15 36t-37 15h1zM587 72l-272 78l73 73l223 -64q1 -25 10 -52zM614 201l-193 55l5 5q21 18 22 47v34l211 -60q-35 -36 -45 -81zM695 314l-247 70v94l247 -70v-94zM695 450l-247 71v94l247 -71v-94zM307 -32l-7 7l132 -38
q-18 -6 -38 -6q-51 0 -87 36v1zM482 -32q-1 -1 -1 -1.5t-1 -0.5l-205 59q-12 48 12 90l266 -76zM659 145l-5 -5q-13 73 41 120v-12q0 -10 -1 -23t-10 -38.5t-25 -41.5zM695 587l-247 70v8h247v-78zM755 716q0 -10 -10 -10h-347q-4 0 -7 3t-3 7v124q0 4 3 7t7 3h347
q10 0 10 -10v-124z" />
    <glyph glyph-name="uniE619" unicode="&#xe619;" 
d="M585 273q-25 -16 -73 -16q-47 0 -74 16q-7 4 -14.5 2.5t-12 -8.5t-2.5 -14.5t9 -11.5q34 -23 93.5 -23t94.5 23q6 4 8 11.5t-2.5 14.5t-12 8.5t-14.5 -2.5zM411 407q11 0 19 7.5t8 19t-8 19t-19 7.5t-19 -7.5t-8 -19t8 -19t19 -7.5zM612 407q11 0 19 7.5t8 19t-8 19
t-19 7.5t-18.5 -7.5t-7.5 -19t7.5 -19t18.5 -7.5zM701 316q19 46 19 96q0 46 -17 96q15 4 24.5 16t9.5 27v41q0 18 -13.5 31.5t-32.5 13.5h-22v88q27 7 44 28.5t17 49.5q0 33 -23.5 56.5t-56.5 23.5q-29 0 -51 -18.5t-27 -45.5q-27 -3 -51.5 -9.5t-53.5 -20t-50 -32.5
t-36.5 -50t-18.5 -70h-30q-19 0 -32.5 -13.5t-13.5 -31.5v-41q0 -15 9.5 -27t23.5 -16q-15 -43 -15 -87q0 -51 20 -105q-46 -18 -74 -58.5t-28 -90.5q0 -67 47 -114t114 -47h75q34 -49 34 -103q0 -11 10 -16q4 -3 10 -3q4 0 8 2t9 5t18 13.5t24 23t22.5 33.5t18.5 45h29
q66 0 113.5 47t47.5 114q0 50 -28 90.5t-73 58.5zM650 844q17 0 29.5 -12t12.5 -29q0 -25 -23 -37q-9 -5 -19 -5t-19 5q-11 6 -18 17q-5 10 -5 19.5t5 19.5q12 22 37 22zM484 756q37 18 89 24q6 -20 21.5 -35t36.5 -20v-88h-231q8 82 84 119zM325 592q0 7 7 7h359q8 0 8 -7
v-41q0 -7 -8 -7h-359q-7 0 -7 7v41zM342 421q0 44 18 85h303q18 -48 18 -94q0 -45 -18 -86q-12 2 -22 2h-1q-7 26 -28.5 43t-49.5 17h-101q-27 0 -49 -17t-29 -43q-10 0 -22 -2q-19 49 -19 95zM641 44h-22q2 13 2 26q0 8 -5.5 13.5t-13.5 5.5t-14 -5.5t-6 -13.5
q0 -13 -1 -26q-3 -20 -9 -39q-14 -39 -44 -66q-6 34 -24 66q-12 21 -26 39q-23 27 -45 42q-6 4 -14 3t-12.5 -8t-3 -14.5t8.5 -12.5q4 -2 12 -10h-41q-51 0 -87 36t-36 86.5t36 86.5t87 36h17q8 0 13.5 5.5t5.5 13.5q0 17 12.5 29.5t29.5 12.5h101q17 0 29.5 -12.5
t12.5 -29.5q0 -8 5.5 -13.5t13.5 -5.5h18q50 0 86 -36t36 -86.5t-36 -86.5t-86 -36z" />
    <glyph glyph-name="uniE61A" unicode="&#xe61a;" 
d="M512 -100q-125 0 -214 88.5t-89 213.5q0 101 61 181v243q0 100 71 171t171 71t171 -71t71 -171v-243q61 -80 61 -181q0 -125 -89 -213.5t-214 -88.5zM694 626q0 75 -53.5 128.5t-128.5 53.5t-128.5 -53.5t-53.5 -128.5v-182q81 61 182 61t182 -61v182zM701 354h-7v8
q-34 39 -81.5 61t-100.5 22q-100 0 -171 -71t-71 -171.5t71 -171.5t171 -71t171 71t71 171q0 85 -53 152zM512 81q-13 0 -21.5 9t-8.5 22v121q0 12 8.5 21t21.5 9t21.5 -9t8.5 -21v-121q0 -13 -8.5 -22t-21.5 -9z" />
    <glyph glyph-name="uniE61B" unicode="&#xe61b;" 
d="M841 384q0 -89 -44 -165t-120 -120t-165 -44t-165 44t-120 120t-44 165q0 131 90.5 226t220.5 102v-99q0 -6 4 -8q3 -2 5.5 -2t4.5 2l237 137q5 2 5 7.5t-5 8.5l-237 137q-5 2 -9.5 -0.5t-4.5 -7.5v-102q-105 -4 -193.5 -59t-139.5 -145.5t-51 -196.5q0 -109 54 -201.5
t146.5 -146.5t201.5 -54t201.5 54t146.5 146.5t54 201.5h-73z" />
    <glyph glyph-name="uniE61C" unicode="&#xe61c;" 
d="M512 812q-138 0 -256 -69t-187 -187t-69 -256t69 -256t187 -187t256 -69t256 69t187 187t69 256t-69 256t-187 187t-256 69zM512 -148q-187 0 -317.5 130.5t-130.5 317.5t130.5 317.5t317.5 130.5t317.5 -130.5t130.5 -317.5t-130.5 -317.5t-317.5 -130.5zM794 556h-564
q-28 0 -49 -24.5t-21 -58.5v-339q0 -38 20.5 -64t49.5 -26h564q28 0 49 24.5t21 58.5v346q0 34 -21 58.5t-49 24.5zM275 492h474q20 0 35.5 -18t15.5 -46v-32h-576v32q0 28 15.5 46t35.5 18zM749 108h-474q-20 0 -35.5 18t-15.5 46v160h576v-160q0 -28 -15.5 -46t-35.5 -18z
M256 236h32v-64h-32v64zM320 236h32v-64h-32v64zM384 236h32v-64h-32v64z" />
    <glyph glyph-name="uniE61D" unicode="&#xe61d;" 
d="M737 875h-464q-21 0 -36 -15t-15 -37v-866q0 -21 15 -36.5t36 -15.5h464q21 0 36 15.5t15 36.5v866q0 22 -15 37t-36 15zM273 832h464q8 0 8 -9v-73h-480v73q0 9 8 9zM744 101h-476v606h476v-606zM737 -51h-464q-8 0 -8 8v100h480v-100q0 -8 -8 -8zM502.5 25
q-9.5 0 -16.5 -7t-7 -17t7 -17t16.5 -7t16.5 7t7 17t-7 17t-16.5 7z" />
    <glyph glyph-name="uniE61E" unicode="&#xe61e;" 
d="M819 330q-22 28 -55 28h-450v138q0 81 58 139t139.5 58t139 -58t57.5 -139v-49h55v49q0 104 -73.5 178t-178.5 74q-104 0 -178 -74t-74 -178v-138q-33 0 -55 -27q-20 -25 -20 -60v-330q0 -36 22 -61.5t53 -25.5h505q31 0 52.5 25.5t21.5 61.5v330q0 35 -19 59zM783 -59
q0 -13 -6 -22.5t-13 -9.5h-505q-7 0 -13.5 9.5t-6.5 22.5v330q0 13 6 22.5t14 9.5h505q7 0 13 -9.5t6 -22.5v-330z" />
    <glyph glyph-name="uniE61F" unicode="&#xe61f;" 
d="M819 119q0 -38 -27.5 -65.5t-65.5 -27.5h-485q-39 0 -66 27.5t-27 65.5v485q0 39 27 66t66 27h380l1 1t1 2l56 56h-438q-63 0 -107.5 -44.5t-44.5 -107.5v-485q0 -62 44.5 -106.5t107.5 -44.5h485q63 0 107 44.5t44 106.5v436l-58 -58v-378zM927 700l-104 104
q-6 6 -14.5 6t-14.5 -6l-15 -14l-459 -459q-3 -3 -5 -7l-70 -175q-5 -13 4 -23q6 -6 15 -6q4 0 8 2l175 70q4 2 6 5l474 474q6 6 6 14.5t-6 14.5zM427 229l-68 -27l-35 34l28 68l456 456l35 -34l-434 -434q-7 -7 0 -15q3 -3 7 -3t7 3l434 434l26 -26z" />
    <glyph glyph-name="uniE620" unicode="&#xe620;" horiz-adv-x="1210" 
d="M903 667h-131h-324h-130q-39 0 -66 -27t-27 -65v-467q0 -38 27 -65.5t66 -27.5h585q38 0 65 27.5t27 65.5v467q0 38 -27 65t-65 27zM947 108q0 -18 -13 -31t-31 -13h-585q-19 0 -32 13t-13 31v467q0 18 13 31t32 13h585q18 0 31 -13t13 -31v-467zM838 353l-170 -169
l-67 67q-7 7 -17.5 7t-18 -7.5t-7.5 -18t7 -17.5l80 -80q8 -9 23 -8q15 -1 23 8l183 182q7 8 7 18.5t-7.5 18t-18 7.5t-17.5 -8zM838 353zM709 435h-338q-11 0 -18.5 7.5t-7.5 18.5v2q0 11 7.5 18.5t18.5 7.5h338q11 0 18.5 -7.5t7.5 -18.5v-2q0 -11 -7.5 -18.5t-18.5 -7.5z
M620 299h-249q-11 0 -18.5 7.5t-7.5 18.5v2q0 11 7.5 18.5t18.5 7.5h249q11 0 18.5 -7.5t7.5 -18.5v-2q0 -11 -7.5 -18.5t-18.5 -7.5z" />
    <glyph glyph-name="uniE621" unicode="&#xe621;" horiz-adv-x="1030" 
d="M1008 475q-5 5 -51.5 60t-95 110.5t-72.5 81.5q-10 11 -16 16.5t-16.5 10t-22.5 5.5h-438q-29 0 -55 -31q-24 -27 -110 -126.5t-109 -126.5q-21 -25 -22 -57.5t22 -68.5q14 -16 438 -505q28 -31 55.5 -31t54.5 31q432 497 438 505q20 24 21 60.5t-21 65.5zM953 380
q-25 -29 -169 -191.5t-225 -256.5q-22 -25 -43.5 -25t-43.5 25q-83 96 -228.5 260t-166.5 188q-11 12 -11 29.5t11 33.5q19 23 97.5 113t94.5 108q6 8 13 13.5t13.5 9t11.5 5.5t11 3t9 1h8h6h349q30 0 42.5 -6.5t29.5 -25.5q105 -121 191 -221q21 -29 0 -63zM515 32
q-23 32 -131 166t-130 164q-2 2 -3 4q-11 15 -33 15h-2v44h96q4 0 6 -3l197 -253l197 252q3 4 6 4h96v-44h-2q-21 0 -32 -15l-3 -3q-22 -31 -130 -165t-132 -166z" />
    <glyph glyph-name="uniE622" unicode="&#xe622;" 
d="M864 -59h-704q-11 0 -18 6.5t-7 15.5v487q0 9 7 16t18 7v332q0 9 7 15.5t18 6.5h654q11 0 18 -6.5t7 -15.5v-338l6 5q8 -2 13.5 -8t5.5 -14v-487q0 -9 -7 -15.5t-18 -6.5v0zM160 33q103 71 258 180l-257 231q-1 -2 -1 -5v-406zM839 794q0 5 -3.5 8t-8.5 3h-630
q-5 0 -8.5 -3t-3.5 -8v-339l315 -284q8 -7 18.5 -7t17.5 7l303 273v350zM864 434q-79 -71 -251 -226q13 -9 61.5 -43t108 -75.5t81.5 -56.5v401zM864 4l-269 188l-59 -53q-7 -7 -17.5 -7t-18.5 7l-64 58l-276 -193v-29q0 -5 3.5 -8.5t8.5 -3.5h680q5 0 8.5 3.5t3.5 8.5v29z
M248 539q0 5 3.5 8t8.5 3h504q5 0 8.5 -3t3.5 -7.5t-3.5 -8t-8.5 -3.5h-504q-5 0 -8.5 3.5t-3.5 7.5zM764 595h-504q-5 0 -8.5 3t-3.5 7.5t3.5 8t8.5 3.5h504q5 0 8.5 -3.5t3.5 -8t-3.5 -7.5t-8.5 -3zM764 661h-504q-5 0 -8.5 3.5t-3.5 8t3.5 7.5t8.5 3h504q5 0 8.5 -3
t3.5 -7.5t-3.5 -8t-8.5 -3.5zM764 728h-504q-5 0 -8.5 3t-3.5 7.5t3.5 8t8.5 3.5h504q5 0 8.5 -3.5t3.5 -8t-3.5 -7.5t-8.5 -3zM260 484h252q5 0 9 -3.5t4 -8t-4 -7.5t-9 -3h-252q-5 0 -8.5 3t-3.5 7.5t3.5 8t8.5 3.5z" />
    <glyph glyph-name="uniE623" unicode="&#xe623;" horiz-adv-x="1025" 
d="M992 352h-192q-13 0 -22.5 9.5t-9.5 22.5t9.5 22.5t22.5 9.5h192q13 0 22.5 -9.5t9.5 -22.5t-9.5 -22.5t-22.5 -9.5zM823 585q-10 -9 -23 -9t-22.5 9.5t-9.5 22.5t9 23l128 128q10 9 23 9t22.5 -9.5t9.5 -22.5t-9 -23zM653 -125q-6 -3 -13 -3q-12 0 -21 8l-311 280h-180
q-21 0 -42 7t-41 21.5t-32.5 40.5t-12.5 59v192q0 21 7 42t21.5 41t40.5 32.5t59 12.5h180l311 280q15 14 34 5.5t19 -29.5v-960q0 -21 -19 -29zM608 792l-267 -240q-9 -8 -21 -8h-192q-21 0 -35.5 -8t-20 -20.5t-7 -20.5t-1.5 -15v-192q0 -21 8 -35.5t20.5 -20t20.5 -7
t15 -1.5h192q12 0 21 -8l267 -240v816zM823 183l128 -128q9 -10 9 -23t-9.5 -22.5t-22.5 -9.5t-23 9l-128 128q-9 10 -9 23t9.5 22.5t22.5 9.5t23 -9z" />
    <glyph glyph-name="uniE624" unicode="&#xe624;" 
d="M976 614q0 25 -17.5 42.5t-42.5 17.5h-777q-25 0 -42.5 -17.5t-17.5 -42.5v-427q0 -24 17.5 -41.5t42.5 -17.5h777q25 0 42.5 17.5t17.5 41.5v427zM908 646l-363 -239q-18 -11 -34 0l-364 239h761zM948 187q0 -13 -9.5 -22t-22.5 -9h-777q-13 0 -22.5 9t-9.5 22v427
q0 11 7 20l381 -250q15 -9 32.5 -9t32.5 9l381 250q7 -9 7 -20v-427z" />
    <glyph glyph-name="uniE625" unicode="&#xe625;" 
d="M552 -104l-139 138q-4 9 -4 13v374l-342 340q-9 11 -2 19q4 11 15 11h831q10 0 15 -10q6 -9 -2 -20l-342 -340v-512q0 -11 -11 -15q-2 -2 -6 -2q-5 0 -13 4zM443 54l104 -104v478q0 4 5 13l318 316h-749l318 -316q4 -9 4 -13v-374z" />
    <glyph glyph-name="uniE626" unicode="&#xe626;" 
d="M512 -64q-185 0 -316.5 131.5t-131.5 316.5t131.5 316.5t316.5 131.5t316.5 -131.5t131.5 -316.5t-131.5 -316.5t-316.5 -131.5zM512 768q-104 0 -192.5 -51.5t-140 -140t-51.5 -192.5t51.5 -192.5t140 -140t192.5 -51.5t192.5 51.5t140 140t51.5 192.5t-51.5 192.5
t-140 140t-192.5 51.5zM557 383l138 136q10 10 10 23t-9.5 22.5t-22.5 9.5t-23 -9l-138 -137l-137 137q-9 9 -22 9t-22.5 -9t-9.5 -22.5t9 -22.5l136 -137l-137 -136q-9 -9 -9.5 -22.5t9 -23t22.5 -9.5q14 0 23 10l138 136l138 -140q10 -9 23 -9t22.5 9.5t9.5 22.5t-9 23z
" />
  </font>
</defs>
</svg>
